<?xml version="1.0" encoding="UTF-8" standalone="no"?>
<svg
   xmlns:dc="http://purl.org/dc/elements/1.1/"
   xmlns:cc="http://creativecommons.org/ns#"
   xmlns:rdf="http://www.w3.org/1999/02/22-rdf-syntax-ns#"
   xmlns:svg="http://www.w3.org/2000/svg"
   xmlns="http://www.w3.org/2000/svg"
   xmlns:sodipodi="http://sodipodi.sourceforge.net/DTD/sodipodi-0.dtd"
   xmlns:inkscape="http://www.inkscape.org/namespaces/inkscape"
   version="1.1"
   id="svg2"
   xml:space="preserve"
   width="755.17334"
   height="190.57333"
   viewBox="0 0 755.17334 190.57333"
   sodipodi:docname="EIRE Constructions_Long_White Text_Yellow Hive.eps"><metadata
     id="metadata8"><rdf:RDF><cc:Work
         rdf:about=""><dc:format>image/svg+xml</dc:format><dc:type
           rdf:resource="http://purl.org/dc/dcmitype/StillImage" /></cc:Work></rdf:RDF></metadata><defs
     id="defs6" /><sodipodi:namedview
     pagecolor="#ffffff"
     bordercolor="#666666"
     borderopacity="1"
     objecttolerance="10"
     gridtolerance="10"
     guidetolerance="10"
     inkscape:pageopacity="0"
     inkscape:pageshadow="2"
     inkscape:window-width="640"
     inkscape:window-height="480"
     id="namedview4" /><g
     id="g10"
     inkscape:groupmode="layer"
     inkscape:label="ink_ext_XXXXXX"
     transform="matrix(1.3333333,0,0,-1.3333333,0,190.57333)"><g
       id="g12"
       transform="scale(0.1)"><path
         d="M 1429.26,0 H 0 V 1429.26 H 1429.26 V 0"
         style="fill:#fcc91f;fill-opacity:1;fill-rule:nonzero;stroke:none"
         id="path14" /><path
         d="m 1083.01,714.633 c 0,-49.903 -32.99,-90.36 -73.68,-90.36 H 419.926 c -40.692,0 -73.676,40.457 -73.676,90.36 v 0 c 0,49.902 32.984,90.355 73.676,90.355 h 589.404 c 40.69,0 73.68,-40.453 73.68,-90.355 v 0"
         style="fill:#242021;fill-opacity:1;fill-rule:nonzero;stroke:none"
         id="path16" /><path
         d="m 994.504,1036.37 c 0,-49.905 -29.676,-90.362 -66.285,-90.362 H 501.035 c -36.605,0 -66.281,40.457 -66.281,90.362 v 0 c 0,49.9 29.676,90.35 66.281,90.35 h 427.184 c 36.609,0 66.285,-40.45 66.285,-90.35 v 0"
         style="fill:#242021;fill-opacity:1;fill-rule:nonzero;stroke:none"
         id="path18" /><path
         d="m 994.504,392.898 c 0,-49.91 -29.676,-90.359 -66.285,-90.359 H 501.035 c -36.605,0 -66.281,40.449 -66.281,90.359 v 0 c 0,49.903 29.676,90.356 66.281,90.356 h 427.184 c 36.609,0 66.285,-40.453 66.285,-90.356 v 0"
         style="fill:#242021;fill-opacity:1;fill-rule:nonzero;stroke:none"
         id="path20" /><path
         d="M 2733.12,621.879 V 377.301 H 1664.49 V 1350.04 H 2717.82 V 1105.47 H 1996.61 V 981.789 h 587.82 V 756.672 H 1996.61 V 621.879 h 736.51"
         style="fill:#ffffff;fill-opacity:1;fill-rule:nonzero;stroke:none"
         id="path22" /><path
         d="m 2866.52,377.301 v 972.739 h 339.06 V 377.301 h -339.06"
         style="fill:#ffffff;fill-opacity:1;fill-rule:nonzero;stroke:none"
         id="path24" /><path
         d="m 4001.82,890.082 c 87.55,0 150.08,25.008 150.08,108.387 0,83.381 -62.53,108.391 -150.08,108.391 H 3675.26 V 890.082 Z m 137.57,-512.781 -236.23,286.265 h -227.9 V 377.301 h -336.29 v 972.739 h 690.65 c 259.85,0 465.51,-111.17 465.51,-343.24 0,-159.804 -97.26,-262.636 -243.18,-311.269 l 273.76,-318.23 h -386.32"
         style="fill:#ffffff;fill-opacity:1;fill-rule:nonzero;stroke:none"
         id="path26" /><path
         d="M 5663.82,621.879 V 377.301 H 4595.19 V 1350.04 H 5648.52 V 1105.47 H 4927.31 V 981.789 h 587.81 V 756.672 H 4927.31 V 621.879 h 736.51"
         style="fill:#ffffff;fill-opacity:1;fill-rule:nonzero;stroke:none"
         id="path28" /><path
         d="m 1699.87,225.391 c 13.67,13.968 31.05,20.961 52.16,20.961 28.25,0 48.9,-9.372 61.97,-28.102 7.21,-10.52 11.08,-21.059 11.62,-31.66 h -35.47 c -2.26,8.129 -5.15,14.281 -8.68,18.422 -6.32,7.367 -15.68,11.047 -28.09,11.047 -12.63,0 -22.6,-5.188 -29.88,-15.59 -7.3,-10.399 -10.95,-25.117 -10.95,-44.16 0,-19.039 3.85,-33.289 11.54,-42.77 7.7,-9.48 17.48,-14.2187 29.35,-14.2187 12.16,0 21.43,4.0707 27.81,12.1997 3.53,4.378 6.46,10.941 8.79,19.691 h 35.23 c -3.04,-18.5 -10.81,-33.5391 -23.3,-45.129 -12.49,-11.5937 -28.49,-17.3828 -48,-17.3828 -24.15,0 -43.14,7.8203 -56.96,23.4922 -13.81,15.7306 -20.72,37.2886 -20.72,64.6876 0,29.633 7.85,52.461 23.58,68.512"
         style="fill:#ffffff;fill-opacity:1;fill-rule:nonzero;stroke:none"
         id="path30" /><path
         d="m 1891.95,73.4219 h -35.24 V 243.121 h 35.24 V 73.4219"
         style="fill:#ffffff;fill-opacity:1;fill-rule:nonzero;stroke:none"
         id="path32" /><path
         d="m 2030.07,243.121 h 36.84 L 2009.05,73.4219 h -33.5 l -57.39,169.6991 h 37.88 l 36.84,-128.84 37.19,128.84"
         style="fill:#ffffff;fill-opacity:1;fill-rule:nonzero;stroke:none"
         id="path34" /><path
         d="M 2126.04,73.4219 H 2090.8 V 243.121 h 35.24 V 73.4219"
         style="fill:#ffffff;fill-opacity:1;fill-rule:nonzero;stroke:none"
         id="path36" /><path
         d="m 2164.86,243.121 h 35.45 V 103.922 h 84.74 V 73.4219 H 2164.86 V 243.121"
         style="fill:#ffffff;fill-opacity:1;fill-rule:nonzero;stroke:none"
         id="path38" /><path
         d="m 2413.93,73.4219 h -35.24 V 243.121 h 35.24 V 73.4219"
         style="fill:#ffffff;fill-opacity:1;fill-rule:nonzero;stroke:none"
         id="path40" /><path
         d="m 2452.16,243.121 h 37.18 l 67.36,-118.332 v 118.332 h 33.05 V 73.4219 h -35.46 L 2485.21,193.832 V 73.4219 h -33.05 V 243.121"
         style="fill:#ffffff;fill-opacity:1;fill-rule:nonzero;stroke:none"
         id="path42" /><path
         d="m 2628.68,242.891 h 121.01 V 213.07 h -85.77 v -39.031 h 75.17 V 144.57 h -75.17 V 73.4219 h -35.24 V 242.891"
         style="fill:#ffffff;fill-opacity:1;fill-rule:nonzero;stroke:none"
         id="path44" /><path
         d="m 2813.83,213.648 v -45.597 h 38.16 c 7.58,0 13.28,0.918 17.06,2.769 6.71,3.219 10.06,9.59 10.06,19.11 0,10.281 -3.24,17.191 -9.73,20.718 -3.65,1.993 -9.11,3 -16.4,3 z m 73.29,25.102 c 6.25,-2.699 11.55,-6.641 15.89,-11.871 3.59,-4.289 6.44,-9.047 8.53,-14.27 2.1,-5.218 3.15,-11.168 3.15,-17.847 0,-8.051 -2.03,-15.981 -6.1,-23.774 -4.08,-7.789 -10.79,-13.297 -20.15,-16.519 7.83,-3.149 13.37,-7.617 16.63,-13.418 3.26,-5.789 4.9,-14.641 4.9,-26.531 v -11.399 c 0,-7.7499 0.31,-13.0116 0.93,-15.7694 0.94,-4.3711 3.13,-7.6133 6.55,-9.6797 v -4.25 h -39.15 c -1.07,3.7578 -1.83,6.789 -2.29,9.0898 -0.93,4.7578 -1.43,9.6367 -1.51,14.6289 l -0.22,15.7694 c -0.15,10.82 -2.02,18.039 -5.62,21.641 -3.59,3.609 -10.32,5.41 -20.19,5.41 h -34.64 V 73.4219 h -34.65 V 243.121 h 81.17 c 11.6,-0.23 20.52,-1.691 26.77,-4.371"
         style="fill:#ffffff;fill-opacity:1;fill-rule:nonzero;stroke:none"
         id="path46" /><path
         d="m 3000.51,137.551 h 43.46 l -21.44,66.769 z m 2.33,105.57 h 40.13 L 3103,73.4219 h -38.44 l -11.2,34.8791 h -62.5 l -11.5,-34.8791 h -37.09 l 60.57,169.6991"
         style="fill:#ffffff;fill-opacity:1;fill-rule:nonzero;stroke:none"
         id="path48" /><path
         d="m 3155.81,125.801 c 1.1,-7.762 3.25,-13.551 6.46,-17.379 5.88,-6.992 15.96,-10.4806 30.22,-10.4806 8.54,0 15.48,0.918 20.81,2.7576 10.11,3.539 15.16,10.102 15.16,19.692 0,5.597 -2.48,9.937 -7.43,13.007 -4.95,2.993 -12.81,5.641 -23.56,7.954 l -18.37,4.019 c -18.06,3.988 -30.47,8.328 -37.22,13.02 -11.43,7.82 -17.16,20.058 -17.16,36.718 0,15.2 5.6,27.821 16.79,37.879 11.19,10.051 27.62,15.082 49.3,15.082 18.1,0 33.54,-4.742 46.33,-14.211 12.78,-9.488 19.48,-23.25 20.1,-41.277 h -34.08 c -0.62,10.199 -5.19,17.457 -13.69,21.75 -5.66,2.848 -12.71,4.27 -21.12,4.27 -9.37,0 -16.85,-1.84 -22.44,-5.532 -5.58,-3.691 -8.37,-8.82 -8.37,-15.429 0,-6.059 2.75,-10.59 8.26,-13.582 3.54,-2 11.05,-4.34 22.55,-7.02 l 29.78,-7.027 c 13.05,-3.071 22.83,-7.18 29.35,-12.321 10.11,-7.992 15.17,-19.531 15.17,-34.66 0,-15.492 -5.99,-28.3708 -17.98,-38.6208 -11.99,-10.2383 -28.91,-15.3711 -50.79,-15.3711 -22.34,0 -39.92,5.0507 -52.72,15.1406 -12.79,10.1016 -19.2,23.9613 -19.2,41.6213 h 33.85"
         style="fill:#ffffff;fill-opacity:1;fill-rule:nonzero;stroke:none"
         id="path50" /><path
         d="M 3416.49,243.121 V 213.07 h -50.77 V 73.4219 h -35.69 V 213.07 h -51.01 v 30.051 h 137.47"
         style="fill:#ffffff;fill-opacity:1;fill-rule:nonzero;stroke:none"
         id="path52" /><path
         d="m 3478.33,213.648 v -45.597 h 38.16 c 7.58,0 13.27,0.918 17.06,2.769 6.71,3.219 10.06,9.59 10.06,19.11 0,10.281 -3.24,17.191 -9.74,20.718 -3.64,1.993 -9.11,3 -16.39,3 z m 73.29,25.102 c 6.25,-2.699 11.55,-6.641 15.89,-11.871 3.59,-4.289 6.43,-9.047 8.53,-14.27 2.1,-5.218 3.15,-11.168 3.15,-17.847 0,-8.051 -2.03,-15.981 -6.11,-23.774 -4.07,-7.789 -10.78,-13.297 -20.14,-16.519 7.83,-3.149 13.37,-7.617 16.63,-13.418 3.26,-5.789 4.9,-14.641 4.9,-26.531 v -11.399 c 0,-7.7499 0.3,-13.0116 0.93,-15.7694 0.93,-4.3711 3.12,-7.6133 6.55,-9.6797 v -4.25 h -39.15 c -1.07,3.7578 -1.84,6.789 -2.3,9.0898 -0.92,4.7578 -1.42,9.6367 -1.5,14.6289 l -0.22,15.7694 c -0.15,10.82 -2.03,18.039 -5.62,21.641 -3.59,3.609 -10.32,5.41 -20.19,5.41 h -34.64 V 73.4219 h -34.65 V 243.121 h 81.17 c 11.59,-0.23 20.52,-1.691 26.77,-4.371"
         style="fill:#ffffff;fill-opacity:1;fill-rule:nonzero;stroke:none"
         id="path54" /><path
         d="m 3618.82,243.121 h 36.03 v -104.23 c 0,-11.661 1.38,-20.161 4.13,-25.532 4.29,-9.507 13.61,-14.2692 28,-14.2692 14.3,0 23.58,4.7622 27.87,14.2692 2.75,5.371 4.13,13.871 4.13,25.532 v 104.23 h 36.04 V 138.809 c 0,-18.039 -2.8,-32.079 -8.39,-42.1371 -10.42,-18.4219 -30.3,-27.6328 -59.65,-27.6328 -29.36,0 -49.28,9.2109 -59.78,27.6328 -5.59,10.0581 -8.38,24.0981 -8.38,42.1371 v 104.312"
         style="fill:#ffffff;fill-opacity:1;fill-rule:nonzero;stroke:none"
         id="path56" /><path
         d="m 3810.96,225.391 c 13.68,13.968 31.06,20.961 52.17,20.961 28.24,0 48.9,-9.372 61.96,-28.102 7.22,-10.52 11.09,-21.059 11.63,-31.66 h -35.47 c -2.26,8.129 -5.15,14.281 -8.68,18.422 -6.32,7.367 -15.68,11.047 -28.09,11.047 -12.63,0 -22.6,-5.188 -29.88,-15.59 -7.3,-10.399 -10.95,-25.117 -10.95,-44.16 0,-19.039 3.85,-33.289 11.54,-42.77 7.7,-9.48 17.48,-14.2187 29.35,-14.2187 12.16,0 21.43,4.0707 27.81,12.1997 3.53,4.378 6.46,10.941 8.79,19.691 h 35.22 c -3.03,-18.5 -10.8,-33.5391 -23.29,-45.129 -12.49,-11.5937 -28.49,-17.3828 -48,-17.3828 -24.16,0 -43.14,7.8203 -56.96,23.4922 -13.82,15.7306 -20.72,37.2886 -20.72,64.6876 0,29.633 7.85,52.461 23.57,68.512"
         style="fill:#ffffff;fill-opacity:1;fill-rule:nonzero;stroke:none"
         id="path58" /><path
         d="M 4094.01,243.121 V 213.07 h -50.77 V 73.4219 h -35.69 V 213.07 h -51.01 v 30.051 h 137.47"
         style="fill:#ffffff;fill-opacity:1;fill-rule:nonzero;stroke:none"
         id="path60" /><path
         d="m 4120.39,243.121 h 36.03 v -104.23 c 0,-11.661 1.38,-20.161 4.13,-25.532 4.29,-9.507 13.62,-14.2692 28,-14.2692 14.3,0 23.59,4.7622 27.87,14.2692 2.76,5.371 4.13,13.871 4.13,25.532 v 104.23 h 36.04 V 138.809 c 0,-18.039 -2.79,-32.079 -8.39,-42.1371 -10.42,-18.4219 -30.3,-27.6328 -59.65,-27.6328 -29.35,0 -49.28,9.2109 -59.77,27.6328 -5.6,10.0581 -8.39,24.0981 -8.39,42.1371 v 104.312"
         style="fill:#ffffff;fill-opacity:1;fill-rule:nonzero;stroke:none"
         id="path62" /><path
         d="m 4331.79,213.648 v -45.597 h 38.17 c 7.58,0 13.27,0.918 17.06,2.769 6.71,3.219 10.06,9.59 10.06,19.11 0,10.281 -3.25,17.191 -9.74,20.718 -3.64,1.993 -9.11,3 -16.4,3 z m 73.29,25.102 c 6.25,-2.699 11.56,-6.641 15.89,-11.871 3.6,-4.289 6.44,-9.047 8.54,-14.27 2.1,-5.218 3.14,-11.168 3.14,-17.847 0,-8.051 -2.03,-15.981 -6.1,-23.774 -4.07,-7.789 -10.78,-13.297 -20.15,-16.519 7.84,-3.149 13.37,-7.617 16.63,-13.418 3.27,-5.789 4.91,-14.641 4.91,-26.531 v -11.399 c 0,-7.7499 0.3,-13.0116 0.92,-15.7694 0.94,-4.3711 3.13,-7.6133 6.56,-9.6797 v -4.25 h -39.15 c -1.08,3.7578 -1.84,6.789 -2.3,9.0898 -0.93,4.7578 -1.42,9.6367 -1.5,14.6289 l -0.23,15.7694 c -0.14,10.82 -2.02,18.039 -5.61,21.641 -3.6,3.609 -10.32,5.41 -20.2,5.41 h -34.64 V 73.4219 h -34.64 V 243.121 h 81.17 c 11.59,-0.23 20.51,-1.691 26.76,-4.371"
         style="fill:#ffffff;fill-opacity:1;fill-rule:nonzero;stroke:none"
         id="path64" /><path
         d="m 4597.77,213.07 h -89.8 v -36.031 h 82.43 v -29.48 h -82.43 v -43.637 h 93.94 V 73.4219 h -128.6 V 243.121 h 124.46 V 213.07"
         style="fill:#ffffff;fill-opacity:1;fill-rule:nonzero;stroke:none"
         id="path66" /><path
         d="m 4731.92,125.801 c 1.1,-7.762 3.25,-13.551 6.47,-17.379 5.87,-6.992 15.95,-10.4806 30.21,-10.4806 8.55,0 15.48,0.918 20.81,2.7576 10.11,3.539 15.17,10.102 15.17,19.692 0,5.597 -2.48,9.937 -7.43,13.007 -4.96,2.993 -12.82,5.641 -23.57,7.954 l -18.37,4.019 c -18.05,3.988 -30.47,8.328 -37.22,13.02 -11.43,7.82 -17.15,20.058 -17.15,36.718 0,15.2 5.59,27.821 16.78,37.879 11.2,10.051 27.62,15.082 49.3,15.082 18.11,0 33.55,-4.742 46.33,-14.211 12.78,-9.488 19.48,-23.25 20.11,-41.277 h -34.09 c -0.62,10.199 -5.19,17.457 -13.69,21.75 -5.66,2.848 -12.7,4.27 -21.12,4.27 -9.37,0 -16.85,-1.84 -22.43,-5.532 -5.59,-3.691 -8.38,-8.82 -8.38,-15.429 0,-6.059 2.75,-10.59 8.26,-13.582 3.55,-2 11.06,-4.34 22.55,-7.02 l 29.78,-7.027 c 13.05,-3.071 22.84,-7.18 29.35,-12.321 10.12,-7.992 15.18,-19.531 15.18,-34.66 0,-15.492 -6,-28.3708 -17.98,-38.6208 -11.99,-10.2383 -28.92,-15.3711 -50.79,-15.3711 -22.35,0 -39.92,5.0507 -52.73,15.1406 -12.79,10.1016 -19.2,23.9613 -19.2,41.6213 h 33.85"
         style="fill:#ffffff;fill-opacity:1;fill-rule:nonzero;stroke:none"
         id="path68" /><path
         d="m 4977.81,114.281 c 8.25,10.367 12.37,25.098 12.37,44.207 0,19.051 -4.12,33.762 -12.37,44.16 -8.25,10.403 -19.4,15.602 -33.45,15.602 -14.04,0 -25.25,-5.18 -33.62,-15.539 -8.36,-10.359 -12.55,-25.102 -12.55,-44.223 0,-19.109 4.19,-33.84 12.55,-44.207 8.37,-10.359 19.58,-15.531 33.62,-15.531 14.05,0 25.2,5.172 33.45,15.531 z m 22.16,-25.7927 c -12.81,-13.1875 -31.36,-19.7891 -55.61,-19.7891 -24.26,0 -42.79,6.6016 -55.6,19.7891 -17.2,16.2107 -25.79,39.5427 -25.79,69.9997 0,31.102 8.59,54.434 25.79,70 12.81,13.211 31.34,19.813 55.6,19.813 24.25,0 42.8,-6.602 55.61,-19.813 17.12,-15.566 25.67,-38.898 25.67,-70 0,-30.457 -8.55,-53.789 -25.67,-69.9997"
         style="fill:#ffffff;fill-opacity:1;fill-rule:nonzero;stroke:none"
         id="path70" /><path
         d="m 5058.36,243.121 h 35.46 V 103.922 h 84.73 V 73.4219 H 5058.36 V 243.121"
         style="fill:#ffffff;fill-opacity:1;fill-rule:nonzero;stroke:none"
         id="path72" /><path
         d="m 5289.97,243.121 h 36.83 L 5268.95,73.4219 h -33.5 l -57.4,169.6991 h 37.88 l 36.85,-128.84 37.19,128.84"
         style="fill:#ffffff;fill-opacity:1;fill-rule:nonzero;stroke:none"
         id="path74" /><path
         d="m 5479.08,213.07 h -89.81 v -36.031 h 82.44 v -29.48 h -82.44 v -43.637 h 93.95 V 73.4219 h -128.6 V 243.121 h 124.46 V 213.07"
         style="fill:#ffffff;fill-opacity:1;fill-rule:nonzero;stroke:none"
         id="path76" /><path
         d="M 5550.93,213.648 V 102.891 h 32.76 c 16.76,0 28.44,8.25 35.05,24.75 3.61,9.058 5.42,19.847 5.42,32.359 0,17.262 -2.71,30.531 -8.13,39.77 -5.42,9.25 -16.2,13.878 -32.34,13.878 z m 65.02,25.782 c 11.91,-3.899 21.55,-11.078 28.92,-21.52 5.92,-8.449 9.95,-17.578 12.1,-27.398 2.15,-9.832 3.22,-19.192 3.22,-28.102 0,-22.558 -4.53,-41.68 -13.59,-57.328 -12.29,-21.1132 -31.26,-31.6601 -56.92,-31.6601 h -73.17 V 243.121 h 73.17 c 10.52,-0.152 19.28,-1.383 26.27,-3.691"
         style="fill:#ffffff;fill-opacity:1;fill-rule:nonzero;stroke:none"
         id="path78" /></g></g></svg>
