<?xml version="1.0" encoding="UTF-8"?>
<svg xmlns="http://www.w3.org/2000/svg" width="222" height="32" viewBox="0 0 222 32" fill="none">
  <g clip-path="url(#clip0_8253_2547)">
    <path d="M25.466 0.487915H22.3016C21.5526 0.487915 20.9488 1.10673 20.9488 1.8743V21.2897L6.58423 1.05913C6.32876 0.702121 5.92232 0.487915 5.48686 0.487915H1.35284C0.603845 0.487915 0 1.10673 0 1.8743V30.0841C0 30.8516 0.603845 31.4704 1.35284 31.4704H4.56367C5.31267 31.4704 5.91652 30.8516 5.91652 30.0841V10.27L20.5423 30.8992C20.7978 31.2562 21.2042 31.4704 21.6397 31.4704H25.4718C26.2208 31.4704 26.8246 30.8516 26.8246 30.0841V1.8743C26.8246 1.10673 26.2208 0.487915 25.4718 0.487915H25.466Z" fill="#DA1A32"></path>
    <path d="M52.9757 2.05876C50.6591 0.684269 47.9708 0 44.9226 0C41.8743 0 39.2267 0.678319 36.91 2.03496C34.5933 3.3916 32.7702 5.27185 31.4464 7.67572C30.1226 10.0796 29.4606 12.8643 29.4606 16.0179C29.4606 19.1714 30.1226 21.8669 31.4464 24.2707C32.7702 26.6746 34.6049 28.5668 36.9506 29.9353C39.2963 31.3098 41.9962 31.9941 45.0503 31.9941C48.1043 31.9941 50.6997 31.3098 53.0164 29.9353C55.3331 28.5608 57.1504 26.6746 58.4568 24.2707C59.769 21.8669 60.4251 19.1119 60.4251 16.0179C60.4251 12.9238 59.7632 10.1212 58.4394 7.71737C57.1156 5.3135 55.2924 3.42135 52.9757 2.05281V2.05876ZM53.1906 21.4206C52.3951 22.9855 51.3036 24.2172 49.9101 25.1157C48.5108 26.0141 46.8909 26.4663 45.0503 26.4663C43.2097 26.4663 41.5201 26.0141 40.086 25.1157C38.6461 24.2172 37.5255 22.9855 36.7184 21.4206C35.9113 19.8557 35.5107 18.0588 35.5107 16.0179C35.5107 13.9769 35.9113 12.1383 36.7184 10.5734C37.5255 9.00855 38.6402 7.77687 40.0686 6.87839C41.4911 5.97992 43.111 5.52771 44.9284 5.52771C46.7457 5.52771 48.4411 5.97992 49.852 6.87839C51.2629 7.77687 52.3719 9.00855 53.179 10.5734C53.986 12.1383 54.3867 13.9531 54.3867 16.0179C54.3867 18.0826 53.9918 19.8557 53.1964 21.4206H53.1906Z" fill="#DA1A32"></path>
    <path d="M79.3765 19.4154C79.5101 19.3559 79.6436 19.2964 79.7714 19.2309C81.4436 18.392 82.7558 17.2079 83.7254 15.6906C84.6892 14.1733 85.1711 12.4359 85.1711 10.4901C85.1711 8.54444 84.7124 6.77724 83.7893 5.2897C82.8661 3.80216 81.5887 2.62998 79.9456 1.77315C78.3024 0.916327 76.4154 0.487915 74.2903 0.487915H64.414C63.665 0.487915 63.0611 1.10673 63.0611 1.8743V30.0841C63.0611 30.8516 63.665 31.4704 64.414 31.4704H67.6248C68.3738 31.4704 68.9776 30.8516 68.9776 30.0841V20.4924H73.5123L79.2953 30.7743C79.5391 31.2027 79.9862 31.4704 80.4681 31.4704H83.9983C85.0492 31.4704 85.6995 30.2983 85.1595 29.37L79.3707 19.4154H79.3765ZM68.9776 6.02157H74.029C75.498 6.02157 76.6999 6.43808 77.6347 7.25921C78.5695 8.08628 79.0398 9.16326 79.0398 10.4901C79.0398 11.347 78.8308 12.1145 78.4127 12.7929C77.9947 13.4712 77.4315 14.0007 76.7289 14.3875C76.0206 14.7743 75.2251 14.9647 74.331 14.9647H68.9776V6.02157Z" fill="#DA1A32"></path>
    <path d="M109.302 0.487915H87.9929C87.2439 0.487915 86.6401 1.10673 86.6401 1.8743V4.63518C86.6401 5.40275 87.2439 6.02157 87.9929 6.02157H95.7094V30.0841C95.7094 30.8516 96.3132 31.4704 97.0622 31.4704H100.273C101.022 31.4704 101.626 30.8516 101.626 30.0841V6.02157H109.302C110.051 6.02157 110.655 5.40275 110.655 4.63518V1.8743C110.655 1.10673 110.051 0.487915 109.302 0.487915Z" fill="#DA1A32"></path>
    <path d="M137.421 0.48791H134.21C133.461 0.48791 132.857 1.10673 132.857 1.8743V12.8345H118.864V1.83265C118.864 1.06508 118.261 0.446259 117.512 0.446259H114.301C113.552 0.446259 112.948 1.06508 112.948 1.83265V30.084C112.948 30.8516 113.552 31.4704 114.301 31.4704H117.512C118.261 31.4704 118.864 30.8516 118.864 30.084V18.4158H132.857V30.084C132.857 30.8516 133.461 31.4704 134.21 31.4704H137.421C138.17 31.4704 138.774 30.8516 138.774 30.084V1.8743C138.774 1.10673 138.17 0.48791 137.421 0.48791Z" fill="#DA1A32"></path>
    <path d="M158.678 19.4154C158.811 19.3559 158.945 19.2964 159.072 19.2309C160.745 18.392 162.063 17.2079 163.026 15.6906C163.99 14.1733 164.472 12.4359 164.472 10.4901C164.472 8.54444 164.014 6.77724 163.09 5.2897C162.167 3.80216 160.89 2.62998 159.247 1.77315C157.603 0.916327 155.716 0.487915 153.586 0.487915H143.709C142.96 0.487915 142.356 1.10673 142.356 1.8743V30.0841C142.356 30.8516 142.96 31.4704 143.709 31.4704H146.92C147.669 31.4704 148.273 30.8516 148.273 30.0841V20.4924H152.808L158.591 30.7743C158.834 31.2027 159.281 31.4704 159.763 31.4704H163.294C164.344 31.4704 164.995 30.2983 164.455 29.37L158.666 19.4154H158.678ZM148.273 6.02157H153.324C154.793 6.02157 155.995 6.43808 156.93 7.25921C157.865 8.08628 158.335 9.16326 158.335 10.4901C158.335 11.347 158.126 12.1145 157.708 12.7929C157.29 13.4712 156.727 14.0007 156.024 14.3875C155.316 14.7743 154.52 14.9647 153.626 14.9647H148.273V6.02157Z" fill="#DA1A32"></path>
    <path d="M189.805 2.05876C187.488 0.684269 184.8 0 181.751 0C178.703 0 176.056 0.678319 173.739 2.03496C171.422 3.3916 169.599 5.27185 168.275 7.67572C166.951 10.0796 166.29 12.8643 166.29 16.0179C166.29 19.1714 166.951 21.8669 168.275 24.2707C169.599 26.6746 171.434 28.5668 173.78 29.9353C176.125 31.3098 178.825 31.9941 181.879 31.9941C184.933 31.9941 187.529 31.3098 189.851 29.9353C192.168 28.5608 193.979 26.6746 195.291 24.2707C196.604 21.8669 197.254 19.1119 197.254 16.0179C197.254 12.9238 196.592 10.1212 195.268 7.71737C193.944 5.3135 192.121 3.42135 189.805 2.05281V2.05876Z" fill="#DA1A32"></path>
    <path d="M220.618 5.4206C219.695 3.87356 218.418 2.65973 216.774 1.791C215.131 0.922277 213.244 0.487915 211.119 0.487915H201.243C200.494 0.487915 199.89 1.10673 199.89 1.8743V30.0841C199.89 30.8516 200.494 31.4704 201.243 31.4704H204.454C205.203 31.4704 205.807 30.8516 205.807 30.0841V21.2004H211.595C213.639 21.2004 215.439 20.7482 216.995 19.8498C218.551 18.9513 219.776 17.7196 220.665 16.1547C221.559 14.5898 222.006 12.8048 222.006 10.7996C222.006 8.79435 221.547 6.9736 220.624 5.4206H220.618ZM214.725 14.2745C213.877 15.1729 212.791 15.6251 211.462 15.6251H205.807V6.02157H210.991C212.46 6.02157 213.662 6.46188 214.597 7.34846C215.532 8.23503 216.002 9.38342 216.002 10.7996C216.002 12.2157 215.578 13.376 214.725 14.2745Z" fill="#DA1A32"></path>
  </g>
  <defs>
    <clipPath id="clip0_8253_2547">
      <rect width="222" height="32" fill="white"></rect>
    </clipPath>
  </defs>
</svg>
